<svg xmlns="http://www.w3.org/2000/svg" width="40" height="40" viewBox="0 -960 960 960" fill="#D0EC1A">
  <path d="M680-80q-75 0-127.5-52.5T500-260q0-32 12-63t34-57l-74-74q-26 22-57 34t-63 12q-75 0-127.5-52.5T172-588q0-29 8.5-56t25.5-51L80-820l56-56 736 736-56 56-125-126q-24 17-51 25.5t-56 8.5q-6 0-11.5-.5t-11.5-.5l-1 1q-3-1-6-1h-5l-4-1q-2 0-4-.5t-4-.5q-2 0-3-1-3 0-4-.5t-4-.5q-2-1-4-1.5t-4-1.5q-3 0-4-1t-4-2q-2-1-4-2t-4-2q-3-1-5-2t-5-3q-3-1-5-3t-5-3q-3-2-5.5-3.5T433-233q-2-2-5-4t-4-4l-3-3q-2-1-3.5-3t-3.5-3q-2-2-4-4t-4-4q-2-2-3.5-4t-3.5-4q-2-2-3.5-4.5T393-275q-1-2-3-5t-3-5q-1-3-2.5-5t-2.5-5q-1-2-2-4t-2-4q-1-2-2-4t-1-4q-1-1-1.5-4t-1.5-4q-1-2-1.5-4t-.5-4q-1-1-1-3.5t-1-3.5q-1-2-1-4t-.5-4-.5-4q0-5 .5-11t1.5-11l-1-2q0-6 .5-11.5t1.5-11.5q1-3 1.5-5.5t1.5-4.5q1-3 2-5.5t2-5.5q2-3 3-5.5t3-5.5q2-3 4-6t4-6q3-3 5-6t5-6q3-2 6-5t6-5q80-58 188-58 36 0 68.5 7.5T589-545l-69-68q-26 11-53 11-58.5 0-99.5-41t-41-99.5q0-58.5 41-99.5t99.5-41q58.5 0 99.5 41t41 99.5q0 28-10 53l298 298q34-54 34-119 0-93.5-64.75-158.25T707-734h-1l-2 1q-5 0-11-1t-11-2h-2q-6-1-11.5-2.5T657-742q-2-1-4.5-1.5T648-745q-3-1-5-2t-5-3q-2-1-5-2.5t-5-2.5q-2-2-5-3.5t-5-3.5q-2-2-5-4.5t-5-4.5q-3-2-5.5-5t-5.5-5q-2-3-5-6t-5-6q-2-3-4-6t-4-6q-2-3-3-6t-3-6q-1-3-2.5-6t-2.5-6q-1-3-2-6.5t-2-6.5q0-3-1-6.5t-1-6.5v-14q1-3 1-6.5t1-6.5q1-3 2-6.5t2-6.5q1-3 2.5-6t2.5-6q1-3 3-6t3-6q2-3 4-6t4-6q3-3 5-6t5-6q3-2 5.5-5t5.5-5q3-3 5.5-5t5.5-5q3-2 6-4.5t6-4.5q3-2 6-3.5t6-3.5q3-1 6-2.5t6-2.5q3-1 6-2t6-2q3 0 6.5-1t6.5-1h14q3 0 6.5 1t6.5 1q3 1 6 2t6 2q3 1 6 2.5t6 2.5q3 2 6 3.5t6 3.5q3 2 6 4.5t6 4.5q2 2 5 4.5t5 4.5q3 3 5.5 5.5t5.5 5.5q2 3 5 6t5 6q2 3 4 6t4 6q2 3 3 6t3 6q1 3 2.5 6t2.5 6q1 3 2 6.5t2 6.5q0 3 1 6.5t1 6.5v14q-1 3-1 6.5t-1 6.5q-1 3-2 6.5t-2 6.5q-1 3-2.5 6t-2.5 6q-1 3-3 6t-3 6q-2 3-4 6t-4 6q-3 3-5 6t-5 6q-2 2-5 5t-5 5q126 20 213 118.5T900-472q0 95-46 179.5T735-139L680-80Zm-8-228 36 36q18-33 18-66 0-58.5-40.75-99.5T586-479q-33 0-66 18l36 37q30-17 60 3t30 53q0 15-7.5 27.5T619-318q-12 8-25 10t-26 6q-13 0-26-6t-27-11q-3-2 1-21t4-34q-15 10-25.5 26T484-321q0 30.5 23 51.75T562-248q20 0 40-10t38-20q18-10 21-15t11-15Zm-410-91q1 9 5 16t8 14q4 6 10 12.5t12 12.5q47-7 78.5-43t31.5-85q0-8-1-16t-3-16q-36 12-59.5 42T316-404q-21 0-33.5 2.5T262-399Zm6-161q0 8 1 16t3 16q48-16 78-55t30-92q0-6-.5-11.5T378-688q-42 13-70 47t-28 80q0 21-3 33t-9 28Zm-38 81q-31 7-49 30.5T163-400q0 33 23.5 56.5T243-320q2 0 4-.5t4-.5q-8-12-14-25t-9-26q-2-7-3-14.5t-1-14.5q0-23 10-44.5t28-37.5q-17 3-25.5 4.5T230-479Z"/>
</svg> 