<svg xmlns="http://www.w3.org/2000/svg" width="40" height="40" viewBox="0 -960 960 960" fill="#D0EC1A">
  <path d="M486-323 304-505l51-51 131 131 188-188 51 51-239 239ZM200-120q-33 0-56.5-23.5T120-200v-560q0-33 23.5-56.5T200-840h560q33 0 56.5 23.5T840-760v211q-15-6-30-10.5t-30-6.5v-194H180v560h180q3 16 7.5 31t10.5 29H200Zm180-160q-5-16-8.5-31.5T368-342q3-16 6.5-31t8.5-30H380v-337h400v129q-14-3-29-4.5t-31-1.5q-59 0-111 20t-92 55q-7-3-14-3.5t-13-.5q-62 0-105.5 43.5T341-456q0 62 43 104.5T488-309q1 6 1.5 12.5T493-282q-7 3-14 1t-14-1q-54-17-89.5-61T340-456q0-17 3-34t9-32h-32v242h60Zm-20-320h400-400Zm440 420q-67 0-113.5-46.5T640-340q0-66 46.5-113T800-500q67 0 113.5 47T960-340q0 67-46.5 113.5T800-180Zm20-44 14-14 54 54 54-54 14 14-54 54 54 54-14 14-54-54-54 54-14-14 54-54-54-54Z"/>
</svg> 