<svg width="180" height="40" viewBox="0 0 180 40" fill="none" xmlns="http://www.w3.org/2000/svg">
  <path d="M10.6875 31L4.6875 9H8.625L12.0625 24.0625L15.8125 9H19.75L23.5 24.0625L26.9375 9H30.875L24.875 31H21.1875L17.0625 15.1875L12.9375 31H10.6875Z" fill="#D0EC1A"/>
  <path d="M36.8125 31.375C35.5208 31.375 34.3958 31.1042 33.4375 30.5625C32.4792 30.0208 31.7396 29.2396 31.2188 28.2188C30.6979 27.1979 30.4375 25.9896 30.4375 24.5938V23.75C30.4375 22.0417 30.6979 20.625 31.2188 19.5C31.7396 18.375 32.5 17.552 33.5 17.0312C34.5 16.5104 35.7604 16.25 37.2812 16.25H39.4688V15.25C39.4688 14.0417 39.1979 13.1458 38.6562 12.5625C38.1146 11.9583 37.2396 11.6562 36.0312 11.6562C34.9104 11.6562 34.0417 11.8958 33.425 12.375C32.8083 12.8542 32.5 13.5625 32.5 14.5H30.25C30.25 13.0208 30.8333 11.8333 32 10.9375C33.1667 10.0417 34.7292 9.59375 36.6875 9.59375C38.6458 9.59375 40.1354 10.0625 41.1562 11C42.1771 11.9375 42.6875 13.2188 42.6875 14.8438V27.0312H42.9062C43.0521 27.8646 43.1562 28.6146 43.2188 29.2812C43.2812 29.9479 43.3125 30.5417 43.3125 31H40.625C40.5833 30.875 40.5312 30.5938 40.4688 30.1562C40.4062 29.7188 40.375 29.2605 40.375 28.7812L37.1875 31.375H36.8125ZM37.375 29.375C38.5417 29.375 39.5208 29.0417 40.3125 28.375C41.1042 27.7083 41.5 26.7188 41.5 25.4062V18.375H37.2812C36.2188 18.375 35.3542 18.6042 34.6875 19.0625C34.0417 19.5 33.5833 20.1146 33.3125 20.9062C33.0625 21.6979 32.9375 22.6562 32.9375 23.7812V24.4062C32.9375 25.5521 33.1354 26.4792 33.5312 27.1875C33.9271 27.8958 34.4688 28.4062 35.1562 28.7188C35.8438 29.0312 36.5833 29.1875 37.375 29.1875V29.375Z" fill="#D0EC1A"/>
  <path d="M53.5006 31.375C51.5214 31.375 49.9235 30.8958 48.7068 29.9375C47.4902 28.9792 46.8819 27.3646 46.8819 25.0938H49.1319C49.1319 26.5938 49.516 27.7188 50.2844 28.4688C51.0527 29.2188 52.1319 29.5938 53.5214 29.5938C54.7068 29.5938 55.6319 29.2812 56.2985 28.6562C56.9652 28.0104 57.2985 27.2292 57.2985 26.3125C57.2985 25.5 57.0943 24.8333 56.686 24.3125C56.2777 23.7708 55.7443 23.3229 55.0839 22.9688C54.4443 22.6146 53.5631 22.25 52.4402 21.875C51.0527 21.3958 49.9339 20.9375 49.0839 20.5C48.2339 20.0625 47.5318 19.4583 46.9777 18.6875C46.4235 17.9167 46.1464 16.9167 46.1464 15.6875C46.1464 14.6458 46.4027 13.6979 46.9152 12.8438C47.4277 11.9688 48.161 11.2812 49.1152 10.7812C50.0902 10.2604 51.2235 10 52.5152 10C54.516 10 56.0631 10.5208 57.1569 11.5625C58.2714 12.6042 58.8289 14.0833 58.8289 16H56.5789C56.5789 14.75 56.2443 13.7708 55.5756 13.0625C54.9277 12.3333 53.9193 11.9688 52.5527 11.9688C51.3881 11.9688 50.4756 12.2604 49.8152 12.8438C49.1756 13.4062 48.8547 14.1354 48.8547 15.0312C48.8547 15.8021 49.0527 16.4167 49.4485 16.875C49.8443 17.3333 50.3631 17.7188 51.0048 18.0312C51.6464 18.3438 52.5277 18.6875 53.6508 19.0625C55.0589 19.5417 56.1931 20.0208 57.0531 20.5C57.9339 20.9583 58.6464 21.5729 59.1908 22.3438C59.7443 23.0938 60.0212 24.0938 60.0212 25.3438C60.0212 26.4271 59.7506 27.4062 59.2089 28.2812C58.6881 29.1562 57.9339 29.8438 56.9456 30.3438C55.9777 31.0312 54.8339 31.375 53.5006 31.375Z" fill="#D0EC1A"/>
  <path d="M65.4844 31V9H69.9531V20.2031L78.5469 9H83.8594L76.0156 19.3906L84.9219 31H79.9219L72.9375 21.4844L69.9531 25.2031V31H65.4844Z" fill="#D0EC1A"/>
  <path d="M91.7344 31.3281C90.0938 31.3281 88.7656 30.974 87.75 30.2656C86.7344 29.5469 86.0052 28.5469 85.5625 27.2656C85.1302 25.974 84.9141 24.4844 84.9141 22.7969V17.0938C84.9141 15.3958 85.1302 13.9062 85.5625 12.625C86.0052 11.3333 86.7344 10.3333 87.75 9.625C88.7656 8.91667 90.0938 8.5625 91.7344 8.5625C93.3854 8.5625 94.7188 8.91667 95.7344 9.625C96.7604 10.3333 97.4896 11.3333 97.9219 12.625C98.3646 13.9062 98.5859 15.3958 98.5859 17.0938V22.7969C98.5859 24.4844 98.3646 25.974 97.9219 27.2656C97.4896 28.5469 96.7604 29.5469 95.7344 30.2656C94.7188 30.974 93.3854 31.3281 91.7344 31.3281ZM91.7344 27.5156C92.7188 27.5156 93.4479 27.2344 93.9219 26.6719C94.4062 26.099 94.7188 25.3958 94.8594 24.5625C95 23.7188 95.0703 22.8385 95.0703 21.9219V17.9219C95.0703 17.0052 95 16.1458 94.8594 15.3438C94.7188 14.5312 94.4062 13.8542 93.9219 13.3125C93.4479 12.7708 92.7188 12.5 91.7344 12.5C90.7604 12.5 90.0312 12.7708 89.5469 13.3125C89.073 13.8542 88.7656 14.5312 88.625 15.3438C88.4844 16.1458 88.4141 17.0052 88.4141 17.9219V21.9219C88.4141 22.8385 88.4844 23.7188 88.625 24.5625C88.7656 25.3958 89.073 26.099 89.5469 26.6719C90.0312 27.2344 90.7604 27.5156 91.7344 27.5156Z" fill="#D0EC1A"/>
  <path d="M110.586 31.3281C108.945 31.3281 107.617 30.974 106.602 30.2656C105.586 29.5469 104.857 28.5469 104.414 27.2656C103.982 25.974 103.766 24.4844 103.766 22.7969V17.0938C103.766 15.3958 103.982 13.9062 104.414 12.625C104.857 11.3333 105.586 10.3333 106.602 9.625C107.617 8.91667 108.945 8.5625 110.586 8.5625C112.237 8.5625 113.57 8.91667 114.586 9.625C115.612 10.3333 116.341 11.3333 116.773 12.625C117.216 13.9062 117.438 15.3958 117.438 17.0938V22.7969C117.438 24.4844 117.216 25.974 116.773 27.2656C116.341 28.5469 115.612 29.5469 114.586 30.2656C113.57 30.974 112.237 31.3281 110.586 31.3281ZM110.586 27.5156C111.57 27.5156 112.299 27.2344 112.773 26.6719C113.258 26.099 113.57 25.3958 113.711 24.5625C113.852 23.7188 113.922 22.8385 113.922 21.9219V17.9219C113.922 17.0052 113.852 16.1458 113.711 15.3438C113.57 14.5312 113.258 13.8542 112.773 13.3125C112.299 12.7708 111.57 12.5 110.586 12.5C109.612 12.5 108.883 12.7708 108.398 13.3125C107.924 13.8542 107.617 14.5312 107.477 15.3438C107.336 16.1458 107.266 17.0052 107.266 17.9219V21.9219C107.266 22.8385 107.336 23.7188 107.477 24.5625C107.617 25.3958 107.924 26.099 108.398 26.6719C108.883 27.2344 109.612 27.5156 110.586 27.5156Z" fill="#D0EC1A"/>
  <path d="M121.492 31V9H126.555L132.93 23.9062H133L132.836 9H137.258V31H132.227L125.852 16.0156H125.781L125.93 31H121.492Z" fill="#D0EC1A"/>
  <path d="M146.727 31.3281C145.086 31.3281 143.758 30.974 142.742 30.2656C141.727 29.5469 140.998 28.5469 140.555 27.2656C140.123 25.974 139.906 24.4844 139.906 22.7969V17.0938C139.906 15.3958 140.123 13.9062 140.555 12.625C140.998 11.3333 141.727 10.3333 142.742 9.625C143.758 8.91667 145.086 8.5625 146.727 8.5625C148.377 8.5625 149.711 8.91667 150.727 9.625C151.753 10.3333 152.482 11.3333 152.914 12.625C153.357 13.9062 153.578 15.3958 153.578 17.0938V22.7969C153.578 24.4844 153.357 25.974 152.914 27.2656C152.482 28.5469 151.753 29.5469 150.727 30.2656C149.711 30.974 148.377 31.3281 146.727 31.3281ZM146.727 27.5156C147.711 27.5156 148.44 27.2344 148.914 26.6719C149.398 26.099 149.711 25.3958 149.852 24.5625C149.992 23.7188 150.062 22.8385 150.062 21.9219V17.9219C150.062 17.0052 149.992 16.1458 149.852 15.3438C149.711 14.5312 149.398 13.8542 148.914 13.3125C148.44 12.7708 147.711 12.5 146.727 12.5C145.753 12.5 145.023 12.7708 144.539 13.3125C144.065 13.8542 143.758 14.5312 143.617 15.3438C143.477 16.1458 143.406 17.0052 143.406 17.9219V21.9219C143.406 22.8385 143.477 23.7188 143.617 24.5625C143.758 25.3958 144.065 26.099 144.539 26.6719C145.023 27.2344 145.753 27.5156 146.727 27.5156Z" fill="#D0EC1A"/>
  <path d="M156.844 31V9H162.375L164.453 21.7656H164.531L167.641 9H173.141V31H169.125V14.7656H169.047L165.406 31H162.578L158.953 14.7656H158.859V31H156.844Z" fill="#D0EC1A"/>
  <path d="M176.297 31V27.375L178.164 27.3594V12.625L176.297 12.6094V9H184.562V12.6094L182.695 12.625V27.3594L184.562 27.375V31H176.297Z" fill="#D0EC1A"/>
</svg> 