<svg width="139" height="57" viewBox="0 0 139 57" fill="none" xmlns="http://www.w3.org/2000/svg">
<path d="M138.999 28.4087C138.999 28.0423 138.999 27.6632 138.999 27.2707C138.999 26.8523 138.96 26.4467 138.882 26.0544C138.829 25.6619 138.79 25.2695 138.764 24.8772C138.738 24.4848 138.686 24.1185 138.607 23.7785H116.786L110.165 34.1765H126.933C126.436 35.9293 125.718 37.525 124.778 38.9635C123.864 40.3762 122.767 41.6055 121.487 42.6519V42.6912C120.155 43.7375 118.679 44.5615 117.06 45.1632C115.467 45.7387 113.769 46.0265 111.967 46.0265C111.915 46.0265 111.863 46.0265 111.81 46.0265C111.784 46.0265 111.771 46.0265 111.771 46.0265C109.421 46.0265 107.201 45.5557 105.111 44.6139C103.022 43.6723 101.233 42.4165 99.744 40.847C98.2031 39.1989 96.9887 37.3155 96.1006 35.1967C95.2125 33.0778 94.7686 30.8153 94.7686 28.4087C94.7686 28.3825 94.7686 28.3694 94.7686 28.3694C94.7686 28.3432 94.7686 28.3039 94.7686 28.2515C94.7686 25.8711 95.2125 23.6346 96.1006 21.5419C96.9887 19.4231 98.2161 17.5789 99.7832 16.0093C101.324 14.4398 103.139 13.1842 105.229 12.2425C107.318 11.3008 109.538 10.8299 111.889 10.8299C111.889 10.8299 111.902 10.8299 111.928 10.8299C111.954 10.8299 111.967 10.8299 111.967 10.8299C111.967 10.8299 111.981 10.8299 112.006 10.8299C112.059 10.8299 112.085 10.8299 112.085 10.8299C113.077 10.8299 114.057 10.9216 115.023 11.1046C116.015 11.2615 116.969 11.497 117.883 11.8109L117.687 11.7323C118.627 12.0724 119.502 12.4648 120.312 12.9095C121.122 13.3542 121.879 13.8381 122.584 14.3613V14.322L125.522 9.6527L128.461 4.94412C127.364 4.18552 126.188 3.5054 124.935 2.90375C123.707 2.3021 122.427 1.79201 121.095 1.37348L120.9 1.29492C119.594 0.928698 118.196 0.640945 116.708 0.431686C115.219 0.196244 113.717 0.0785322 112.202 0.0785322C112.15 0.0785322 112.111 0.0785322 112.085 0.0785322C112.085 0.0785322 112.059 0.0785322 112.006 0.0785322C111.98 0.0785322 111.941 0.0785322 111.889 0.0785322C111.863 0.0785322 111.824 0.0785322 111.771 0.0785322C109.76 0.0785322 107.801 0.261626 105.895 0.627873C104.014 0.99408 102.186 1.54342 100.41 2.27587L100.645 2.19732C98.9212 2.95592 97.3152 3.83225 95.8264 4.82629C94.3378 5.8203 92.9796 6.93207 91.7519 8.16152C90.2895 9.70488 89.0487 11.2221 88.0302 12.7131C87.0377 14.2565 86.215 15.7606 85.5622 17.2255C84.9092 18.6904 84.3737 20.1684 83.956 21.6594C83.5641 23.0981 83.2114 24.5238 82.8982 25.9364C82.2974 28.7093 81.6705 31.3513 81.0177 33.8624C80.3646 36.3737 79.0196 38.6365 76.9825 40.6506C76.199 41.4616 75.337 42.207 74.3966 42.8873C73.4826 43.5411 72.5292 44.0905 71.5368 44.5351L71.4191 44.6136C70.4268 45.0061 69.3821 45.3201 68.2851 45.5555C67.2143 45.7909 66.0783 45.9085 64.8768 45.9085C64.8768 45.9085 64.8506 45.9085 64.7983 45.9085C64.7722 45.9085 64.7591 45.9085 64.7591 45.9085C62.3304 45.9085 60.0449 45.4376 57.9033 44.4961C55.7616 43.5542 53.8811 42.2725 52.2618 40.6506C50.6947 39.1073 49.4412 37.2632 48.5008 35.1181C47.5607 32.9469 47.0906 30.6448 47.0906 28.212C47.0906 25.8578 47.5476 23.6344 48.4616 21.5417C49.3758 19.4228 50.6294 17.5787 52.2226 16.0091C53.8157 14.4134 55.6832 13.1447 57.8248 12.203C59.9665 11.2352 62.252 10.7512 64.6809 10.7512C65.6995 10.7512 66.6919 10.8429 67.6584 11.0259C68.6247 11.1828 69.5779 11.4052 70.5183 11.6929H70.3614C71.3018 11.9807 72.1637 12.3469 72.9472 12.7916C73.7308 13.2101 74.4881 13.681 75.2194 14.2042H75.1411L78.1183 9.53484L81.135 4.78704C80.0642 4.05458 78.9019 3.38755 77.6483 2.7859C76.4208 2.18425 75.1281 1.67417 73.7699 1.25561H73.613C72.3072 0.837074 70.9098 0.523176 69.4212 0.313898C67.9585 0.104639 66.4568 0 64.9159 0C64.8898 0 64.8506 0 64.7983 0C64.7721 0 64.746 0 64.72 0C64.72 0 64.7066 0 64.6808 0C64.6547 0 64.6416 0 64.6416 0C62.2126 0 59.8621 0.300825 57.5897 0.902475C55.3437 1.47796 53.2282 2.28889 51.2431 3.33522L51.3608 3.29595C49.4018 4.28999 47.5998 5.50634 45.9543 6.94507C44.3088 8.38379 42.8464 9.96641 41.5664 11.6929L41.4882 11.7322C40.9658 10.1626 40.2082 8.73698 39.2158 7.45521C38.2234 6.14727 37.048 5.0617 35.6898 4.19846H35.6506C34.2143 3.25673 32.6342 2.52429 30.9103 2.00112C29.1867 1.4518 27.3843 1.17712 25.504 1.17712C25.4256 1.17712 25.3604 1.17712 25.3081 1.17712C25.2558 1.17712 25.2166 1.17712 25.1906 1.17712H0V55.561H27.8155C27.8678 55.561 27.9199 55.561 27.9722 55.561C28.0245 55.561 28.0637 55.561 28.0898 55.561C29.7614 55.561 31.3546 55.3518 32.8694 54.9334C34.3841 54.5409 35.8207 53.9784 37.1789 53.2461L37.0612 53.2853C38.3409 52.5789 39.4902 51.742 40.5088 50.774C41.5534 49.78 42.4285 48.6813 43.1335 47.4779L43.212 47.3603C44.4656 48.7991 45.8629 50.0808 47.4038 51.2057C48.945 52.3303 50.5773 53.3114 52.301 54.1486L52.4968 54.1876C54.2207 54.9724 56.075 55.5872 58.0601 56.0318C60.0449 56.5029 62.1082 56.7383 64.2498 56.7383C64.2498 56.7383 64.2633 56.7383 64.2891 56.7383C64.3152 56.7383 64.3413 56.7383 64.3675 56.7383C64.4198 56.7383 64.459 56.7383 64.4849 56.7383C64.5111 56.7383 64.5503 56.7383 64.6026 56.7383C67.0316 56.7383 69.3952 56.4374 71.6935 55.8357C73.992 55.2602 76.1337 54.423 78.1185 53.3246L78.001 53.4422C80.0381 52.3697 81.8794 51.1011 83.5249 49.6361C85.1703 48.1451 86.633 46.4971 87.9128 44.6922L87.952 44.5744C89.2055 46.4055 90.6419 48.0666 92.2612 49.5578C93.9067 51.0226 95.6828 52.2781 97.5892 53.3247L97.7069 53.403C99.6919 54.4494 101.834 55.2603 104.132 55.8358C106.43 56.4375 108.82 56.7384 111.301 56.7384C111.301 56.7384 111.315 56.7384 111.34 56.7384C111.367 56.7384 111.406 56.7384 111.458 56.7384C111.484 56.7384 111.51 56.7384 111.536 56.7384C111.562 56.7384 111.575 56.7384 111.575 56.7384C113.482 56.7384 115.336 56.5423 117.139 56.1498C118.941 55.7573 120.664 55.1951 122.31 54.4625C123.982 53.7563 125.549 52.893 127.011 51.8728C128.474 50.8265 129.819 49.6623 131.046 48.3806C132.3 47.1251 133.41 45.7386 134.376 44.2215C135.343 42.7303 136.165 41.1477 136.844 39.4735C137.524 37.7995 138.046 36.0468 138.412 34.2157C138.803 32.4108 138.999 30.5274 138.999 28.5654C138.999 28.5392 138.999 28.513 138.999 28.4868C138.999 28.4608 138.999 28.4348 138.999 28.4087ZM11.714 23.2684V11.2223H25.0733C25.0995 11.2223 25.1125 11.2223 25.1125 11.2223C25.9484 11.2223 26.7188 11.3792 27.4239 11.6932C28.1292 11.9809 28.769 12.3994 29.3436 12.9488H29.3044C29.8529 13.4981 30.2709 14.1259 30.5582 14.8322C30.8714 15.5385 31.0283 16.2971 31.0283 17.108C31.0283 17.108 31.0283 17.1215 31.0283 17.1473C31.0283 17.1735 31.0283 17.1866 31.0283 17.1866C31.0283 17.2389 31.0283 17.2651 31.0283 17.2651C31.0283 17.2651 31.0283 17.2913 31.0283 17.3437C31.0283 18.1284 30.8714 18.8871 30.5582 19.6195C30.2709 20.3258 29.8659 20.9536 29.3436 21.5029H29.3044C28.7559 22.0522 28.1292 22.4839 27.4239 22.7978C26.7188 23.1117 25.9484 23.2686 25.1125 23.2686C25.1125 23.2686 25.0991 23.2686 25.0733 23.2686L11.714 23.2684ZM11.714 45.5164V33.1564H27.6589C27.685 33.1564 27.6981 33.1564 27.6981 33.1564C28.56 33.1564 29.3697 33.3133 30.1271 33.6272C30.9106 33.9411 31.6029 34.3598 32.2034 34.883C32.778 35.4321 33.2353 36.0862 33.5746 36.8447C33.9142 37.6033 34.0839 38.4011 34.0839 39.2382C34.0839 39.2382 34.0839 39.2517 34.0839 39.2775C34.0839 40.167 33.9141 40.991 33.5746 41.7496C33.2353 42.5081 32.7649 43.1753 32.1644 43.7506C31.5898 44.3261 30.9106 44.771 30.1271 45.0847C29.3697 45.3986 28.547 45.5557 27.6589 45.5557H11.714V45.5164Z" fill="#3D3838"/>
</svg>
