<svg width="171" height="34" viewBox="0 0 171 34" fill="none" xmlns="http://www.w3.org/2000/svg">
<path d="M32.7418 2.26033V32.7747H27.4835V8.8294H27.4134L18.0185 32.7747H14.513L4.90777 8.8294H4.83766V32.7747H0V2.26033H7.57198L16.2657 24.8636H16.406L25.5905 2.26033H32.7418ZM37.0887 4.59129C37.0887 3.74366 37.3691 3.03731 38.0001 2.47223C38.6311 1.90715 39.3322 1.62461 40.1736 1.62461C41.085 1.62461 41.8562 1.90715 42.4171 2.47223C42.978 3.03731 43.3286 3.74366 43.3286 4.59129C43.3286 5.43891 43.0481 6.14526 42.4171 6.71034C41.7861 7.27542 41.085 7.55796 40.1736 7.55796C39.2621 7.55796 38.561 7.27542 38.0001 6.71034C37.4392 6.07463 37.0887 5.36827 37.0887 4.59129ZM42.7677 10.8778V32.7747H37.6496V10.8778H42.7677ZM58.2622 29.0311C59.0334 29.0311 59.8747 28.8898 60.7862 28.466C61.6976 28.1128 62.539 27.6184 63.3102 27.0533V31.8565C62.4688 32.3509 61.5574 32.7041 60.5057 32.916C59.4541 33.1279 58.3323 33.2692 57.0703 33.2692C53.8452 33.2692 51.2511 32.2803 49.288 30.2319C47.2548 28.1834 46.2732 25.5699 46.2732 22.462C46.2732 18.9302 47.3249 16.0342 49.3581 13.7739C51.3913 11.5135 54.2659 10.3834 58.0519 10.3834C59.0334 10.3834 60.015 10.5246 60.9264 10.7365C61.908 10.9485 62.6792 11.3016 63.2401 11.5842V16.5286C62.4688 15.9635 61.6275 15.4691 60.8563 15.1866C60.015 14.904 59.1736 14.6921 58.3323 14.6921C56.2991 14.6921 54.6865 15.3278 53.4245 16.6699C52.1625 18.012 51.6017 19.7779 51.6017 22.0382C51.6017 24.2279 52.2326 25.9937 53.4245 27.1945C54.6164 28.3953 56.229 29.0311 58.2622 29.0311ZM77.8231 10.5246C78.2438 10.5246 78.5944 10.5246 78.9449 10.5953C79.2955 10.6659 79.5759 10.7365 79.7862 10.8072V16.0342C79.5058 15.8223 79.1553 15.6104 78.5944 15.4691C78.0335 15.3278 77.4726 15.1866 76.7014 15.1866C75.4394 15.1866 74.3877 15.7516 73.5464 16.8112C72.705 17.8707 72.2143 19.4953 72.2143 21.7556V32.7747H67.0962V10.8778H72.2143V14.3389H72.2844C72.7752 13.1381 73.4763 12.2199 74.3877 11.5135C75.3693 10.8778 76.491 10.5246 77.8231 10.5246ZM80.0667 22.1794C80.0667 18.577 81.1184 15.681 83.0815 13.562C85.1147 11.4429 87.9191 10.3834 91.4948 10.3834C94.8601 10.3834 97.5243 11.3723 99.4173 13.4207C101.31 15.4691 102.292 18.2239 102.292 21.685C102.292 25.2168 101.24 28.0422 99.2771 30.1612C97.2439 32.2803 94.5095 33.3398 91.004 33.3398C87.6387 33.3398 84.9745 32.3509 83.0114 30.3731C81.0482 28.3247 80.0667 25.5699 80.0667 22.1794ZM85.3951 21.9675C85.3951 24.2279 85.8859 25.9937 86.9376 27.1945C87.9892 28.3953 89.4616 29.0311 91.3546 29.0311C93.1774 29.0311 94.6498 28.466 95.6313 27.1945C96.6129 25.9937 97.1037 24.2279 97.1037 21.8263C97.1037 19.4953 96.6129 17.7294 95.6313 16.458C94.6498 15.2572 93.1774 14.6215 91.4247 14.6215C89.5317 14.6215 88.1294 15.2572 87.0778 16.5286C85.8859 17.8707 85.3951 19.6366 85.3951 21.9675ZM109.934 16.6699C109.934 17.3763 110.144 18.012 110.635 18.4358C111.126 18.8596 112.107 19.354 113.72 19.9898C115.753 20.8374 117.225 21.7556 117.997 22.7445C118.838 23.8041 119.259 25.0049 119.259 26.4882C119.259 28.5366 118.487 30.1612 116.875 31.4327C115.332 32.7041 113.159 33.2692 110.495 33.2692C109.583 33.2692 108.602 33.1279 107.48 32.916C106.358 32.7041 105.447 32.4215 104.676 32.0684V26.9826C105.587 27.6184 106.639 28.1834 107.69 28.5366C108.742 28.8898 109.724 29.1017 110.635 29.1017C111.757 29.1017 112.668 28.9604 113.159 28.6072C113.72 28.2541 114 27.7596 114 26.9826C114 26.2763 113.72 25.7112 113.159 25.1461C112.598 24.6517 111.476 24.0866 109.934 23.4509C108.041 22.6739 106.709 21.7556 105.938 20.7667C105.166 19.7778 104.746 18.5064 104.746 16.9524C104.746 14.9747 105.517 13.35 107.059 12.0786C108.602 10.8072 110.635 10.1715 113.089 10.1715C113.86 10.1715 114.702 10.2421 115.613 10.454C116.524 10.6659 117.366 10.8778 117.997 11.0897V16.1048C117.296 15.681 116.524 15.2572 115.613 14.904C114.702 14.5508 113.79 14.4096 112.949 14.4096C111.967 14.4096 111.196 14.6215 110.705 14.9747C110.214 15.4691 109.934 15.9635 109.934 16.6699ZM121.432 22.1794C121.432 18.577 122.484 15.681 124.447 13.562C126.48 11.4429 129.285 10.3834 132.86 10.3834C136.226 10.3834 138.89 11.3723 140.783 13.4207C142.676 15.4691 143.657 18.2239 143.657 21.685C143.657 25.2168 142.606 28.0422 140.643 30.1612C138.609 32.2803 135.875 33.3398 132.369 33.3398C129.004 33.3398 126.34 32.3509 124.377 30.3731C122.484 28.3247 121.432 25.5699 121.432 22.1794ZM126.761 21.9675C126.761 24.2279 127.251 25.9937 128.303 27.1945C129.355 28.3953 130.827 29.0311 132.72 29.0311C134.543 29.0311 136.015 28.466 136.997 27.1945C137.978 25.9937 138.469 24.2279 138.469 21.8263C138.469 19.4953 137.978 17.7294 136.997 16.458C136.015 15.2572 134.543 14.6215 132.79 14.6215C130.897 14.6215 129.495 15.2572 128.443 16.5286C127.321 17.8707 126.761 19.6366 126.761 21.9675ZM160.694 15.1159H153.052V32.7747H147.864V15.1159H144.218V10.8778H147.864V7.8405C147.864 5.58018 148.635 3.67303 150.108 2.18969C151.58 0.706352 153.473 0 155.787 0C156.417 0 156.978 0.0706354 157.469 0.0706354C157.96 0.0706354 158.381 0.211906 158.731 0.353176V4.80319C158.591 4.73256 158.24 4.59129 157.82 4.45002C157.399 4.30875 156.908 4.23811 156.347 4.23811C155.296 4.23811 154.454 4.59129 153.894 5.227C153.333 5.86272 153.052 6.92225 153.052 8.19368V10.8072H160.694V5.86272L165.812 4.30875V10.8072H171.001V15.0453H165.812V25.2874C165.812 26.6295 166.093 27.5477 166.513 28.1128C167.004 28.6779 167.775 28.9604 168.827 28.9604C169.108 28.9604 169.458 28.8898 169.879 28.7485C170.299 28.6072 170.65 28.466 170.93 28.2541V32.4922C170.58 32.7041 170.089 32.8454 169.318 32.9866C168.547 33.1279 167.846 33.1985 167.074 33.1985C164.901 33.1985 163.288 32.6334 162.237 31.5033C161.185 30.3731 160.624 28.6072 160.624 26.2763L160.694 15.1159Z" fill="#3D3838"/>
</svg>
