<svg width="165" height="60" viewBox="0 0 165 60" fill="none" xmlns="http://www.w3.org/2000/svg">
<path d="M64.9226 0H12.5192C8.45585 0 5.85357 4.31973 7.75463 7.91133L12.9956 17.8377H3.49346C1.5639 17.8377 0 19.4032 0 21.3327C0 21.8994 0.137711 22.4582 0.402056 22.96L17.2615 54.8712C18.1654 56.576 20.2801 57.2266 21.9849 56.3243C22.6038 55.9967 23.1103 55.4901 23.438 54.8712L28.0173 46.2507L33.7617 57.1268C35.783 60.9527 41.2599 60.959 43.2892 57.1379L69.5558 7.7103C71.4141 4.21526 68.8815 0 64.9226 0ZM41.3833 21.119L30.0577 42.4359C29.4562 43.5709 28.0474 44.003 26.9125 43.4015C26.5009 43.1831 26.1653 42.8475 25.9469 42.4359L14.7305 21.2093C14.129 20.0743 14.5627 18.6671 15.6976 18.0656C16.0316 17.8883 16.402 17.7965 16.7787 17.795H39.3841C40.6346 17.795 41.6477 18.808 41.6477 20.0585C41.6477 20.4273 41.5575 20.7914 41.3833 21.119ZM120.66 22.9299H114.928V42.5752C114.926 42.9472 114.626 43.2496 114.252 43.2511H109.831C109.459 43.2496 109.157 42.9488 109.155 42.5752V22.9299H103.389C103.031 22.9441 102.729 22.6655 102.714 22.3078C102.714 22.3015 102.714 22.2951 102.714 22.2872V18.8128C102.718 18.455 103.01 18.1669 103.37 18.1701C103.376 18.1701 103.384 18.1701 103.39 18.1701H120.658C121.03 18.1527 121.348 18.4392 121.367 18.8112V22.2872C121.348 22.6624 121.032 22.9473 120.66 22.9299ZM139.061 43.1103C137.88 43.278 135.894 43.5487 132.248 43.5487C127.895 43.5487 124.049 42.4344 124.049 36.2943V25.0858C124.049 18.9441 127.93 17.8646 132.281 17.8646C135.924 17.8646 137.879 18.1353 139.061 18.3031C139.533 18.3695 139.737 18.5405 139.737 18.979V22.121C139.735 22.493 139.434 22.7953 139.061 22.7969H131.946C130.36 22.7969 129.787 23.3367 129.787 25.0921V28.1629H138.792C139.164 28.1629 139.466 28.4653 139.468 28.8388V32.0426C139.468 32.4146 139.165 32.7169 138.792 32.7185H129.787V36.2959C129.787 38.0497 130.36 38.5911 131.946 38.5911H139.061C139.433 38.5927 139.735 38.8934 139.737 39.267V42.4059C139.737 42.8396 139.534 43.0422 139.061 43.1103ZM164.522 43.2448H159.157C158.719 43.2448 158.516 43.1039 158.281 42.7399L153.628 35.3541L149.413 42.5768C149.176 42.982 148.941 43.2527 148.573 43.2527H143.579C143.241 43.2527 143.072 43.0501 143.072 42.8143C143.078 42.7319 143.102 42.6512 143.138 42.5768L150.448 30.3869L143.063 18.8128C143.025 18.751 143.002 18.6814 142.996 18.6101C143.021 18.3521 143.243 18.1606 143.501 18.1717H148.933C149.304 18.1717 149.575 18.5088 149.774 18.8128L154.091 25.6287L158.269 18.8128C158.437 18.5088 158.741 18.1717 159.11 18.1717H164.104C164.362 18.1606 164.585 18.3521 164.611 18.6101C164.604 18.6814 164.58 18.751 164.542 18.8128L157.193 30.4597L164.857 42.5784C164.918 42.6813 164.952 42.7968 164.959 42.9156C164.962 43.1103 164.793 43.2448 164.522 43.2448ZM99.422 18.235C99.4615 18.235 99.4995 18.2397 99.5375 18.2477C99.8177 18.3126 99.9934 18.5912 99.9285 18.8713C99.9285 18.8713 94.0781 39.5962 93.9831 39.8764C93.1822 42.2903 91.1323 43.5313 88.7833 43.5313C86.3171 43.5313 84.3797 42.3473 83.5803 39.8701C83.5138 39.6659 77.532 18.8745 77.532 18.8745C77.5225 18.8365 77.5194 18.7969 77.5194 18.7574C77.5194 18.4693 77.752 18.2366 78.0401 18.235H82.8617C83.1102 18.235 83.3239 18.4123 83.3713 18.656L88.2752 36.7897C88.3432 37.1554 88.443 37.2947 88.7469 37.2947C89.0508 37.2947 89.1521 37.1601 89.2186 36.7897L94.1177 18.6608C94.1651 18.417 94.3788 18.2413 94.6273 18.2397L99.422 18.235Z" fill="#3D3838"/>
</svg>
