<svg width="251" height="51" viewBox="0 0 251 51" fill="none" xmlns="http://www.w3.org/2000/svg">
<path d="M25.4186 -0.000366541H10.6061V1.19841H15.4083V25.6077C15.4083 33.0108 13.4078 35.0105 8.80586 35.0105C6.00411 35.0105 5.40319 32.8106 5.40319 31.8095C5.40319 29.2092 5.20288 27.4097 2.79918 27.4097C0.398048 27.4097 0 29.8098 0 30.6107C0 34.012 1.5999 36.6123 8.20493 36.6123C16.2121 36.6123 20.4135 34.012 20.4135 25.0096V1.19584H25.2183V-0.000366541H25.4186ZM27.4217 31.0086C26.6204 31.0086 25.8192 31.214 25.4186 31.8095C24.8177 32.4102 24.6174 33.0108 24.6174 33.8117C24.6174 34.6075 24.8177 35.2107 25.4186 35.814C26.0195 36.4121 26.6204 36.6097 27.4217 36.6097C28.2203 36.6097 28.8213 36.4095 29.4222 35.814C30.0231 35.2133 30.2234 34.6075 30.2234 33.8117C30.2234 33.0108 30.0231 32.4102 29.4222 31.8095C28.8213 31.2088 28.2203 31.0086 27.4191 31.0086H27.4217ZM60.2465 31.0086C59.4453 31.0086 58.8444 31.214 58.2435 31.8095C57.6451 32.4102 57.4448 33.0108 57.4448 33.8117C57.4448 34.6075 57.6451 35.2107 58.2435 35.814C58.8444 36.4121 59.4453 36.6097 60.2465 36.6097C61.0478 36.6097 61.8464 36.4095 62.2496 35.814C62.848 35.2107 63.0483 34.6075 63.0483 33.8117C63.0483 33.0108 62.848 32.4102 62.2471 31.8095C61.6461 31.2088 61.0478 31.0086 60.244 31.0086H60.2465ZM49.8357 -0.000366541H35.4237V1.19841H39.6276V29.2117C39.6276 31.4116 39.4273 32.0097 39.227 32.6104C39.0267 33.4139 38.4258 33.8143 37.4243 34.2148C36.8259 34.415 35.8244 34.6126 34.4222 34.6126V35.814H50.036V34.6126C48.6338 34.6126 47.6348 34.415 47.0313 34.2148C46.0324 33.8143 45.4314 33.2136 45.2337 32.613C44.9665 31.9103 44.8299 31.1648 44.8305 30.4131V20.8049H48.6338C59.8434 20.8049 63.0457 16.4051 63.0457 10.401C63.0457 4.19919 61.2455 -0.000366541 49.8357 -0.000366541ZM47.8326 19.4059H44.8305V1.39863H47.4345C56.0401 1.39863 58.0406 5.00009 58.0406 10.6012C58.0406 16.4026 54.6405 19.4059 47.8326 19.4059ZM109.284 32.4102C109.02 31.6374 108.884 30.8266 108.883 30.0101V1.19841H112.684V-0.000366541H103.482C103.282 0.400081 92.4756 27.2095 92.4756 27.2095L92.2753 27.4123C92.075 27.4123 92.075 27.4123 92.075 27.2121C92.075 27.2121 80.4674 0.199857 80.4674 -0.000366541H70.2517V1.20097H74.6559V31.6118C74.6559 32.2151 74.4556 32.8158 74.055 33.4139C73.6544 34.0145 73.0534 34.415 72.4525 34.6126C72.0519 34.818 71.2532 34.818 70.4494 34.818V36.0142H80.4597V34.8129C79.6585 34.8129 79.2578 34.6126 78.6595 34.6126C77.8583 34.4124 77.4577 34.012 77.057 33.4113C76.6564 33.0108 76.4561 32.4102 76.4561 31.6118L76.2558 29.0089V4.99752H76.8567C76.8567 4.99752 89.8665 35.4084 90.0668 35.8088H91.0683L103.477 5.20031H103.878V30.0101C103.878 31.0112 103.677 31.8095 103.477 32.6104C103.277 33.4113 102.679 33.8117 101.877 34.2122C101.039 34.4902 100.159 34.6247 99.2758 34.6101V35.8114H113.287V34.6101C112.403 34.6248 111.523 34.4903 110.683 34.2122C110.085 33.8117 109.484 33.2111 109.284 32.4102ZM128.297 9.60266C120.691 9.60266 116.089 14.6031 116.089 23.2076C116.089 36.0116 126.097 36.8125 128.097 36.8125C132.301 36.8125 140.308 34.2122 140.308 23.0099C140.308 14.2052 135.103 9.60266 128.297 9.60266ZM128.097 35.2107C122.494 35.2107 121.492 32.4127 121.492 23.4078C121.492 16.4051 121.893 11.2019 128.097 11.2019C134.702 11.2019 134.702 16.6028 134.702 23.0048C134.702 32.0097 133.102 35.2107 128.097 35.2107ZM159.926 10.0031C155.519 10.0031 153.921 12.6034 152.717 15.404H152.316C152.316 15.404 151.718 11.4021 151.518 10.401H142.709V11.8026H147.512V29.4094C147.512 31.2088 147.314 32.4127 146.916 33.2085C146.513 34.012 145.311 34.6101 143.511 34.6101H142.709V36.2119H157.522V34.6101H156.721C154.718 34.6101 153.921 34.2122 153.516 33.4113C153.118 32.6104 152.917 31.4091 152.917 29.6096V20.0066C152.917 17.0032 155.318 13.4043 158.123 13.4043C161.125 13.4043 160.922 17.8041 164.327 16.0047C165.93 15.0036 165.529 10.0031 159.926 10.0031ZM218.169 33.2085C216.567 33.2085 216.169 32.4127 215.968 30.811V16.8056C215.968 14.4029 215.565 13.0039 214.168 11.5998C212.766 10.2008 210.162 9.59753 206.361 9.59753C202.758 9.59753 200.157 10.2008 198.354 11.5998C196.754 12.8037 195.955 14.0024 195.955 15.8045C195.955 16.6002 196.156 17.2035 196.554 17.4037C196.954 17.8041 197.555 18.0044 198.154 18.0044C199.553 18.0044 200.357 17.2086 200.755 15.404C200.961 14.0024 201.356 13.2041 201.959 12.4007C202.756 11.6049 203.963 11.2019 205.36 11.2019C207.162 11.2019 208.562 11.5998 209.163 12.6009C209.764 13.602 210.164 14.8033 210.164 16.4V20.6047C205.557 21.0051 194.35 22.0037 194.951 30.4079C195.152 33.6089 197.956 36.6097 201.757 36.6097C205.961 36.6097 208.559 34.2122 210.36 32.4076C210.562 34.2096 212.363 36.4121 215.367 36.4121C218.767 36.4121 220.77 34.8103 220.973 30.6082H220.172C220.172 32.21 219.171 33.2111 218.169 33.2111V33.2085ZM210.565 30.4105V30.6107L210.365 30.811C207.964 33.0134 205.963 33.8143 204.561 33.8143C200.958 33.8143 200.357 30.811 200.357 29.412C200.357 24.6117 206.962 22.209 210.565 22.209V30.4105ZM248.195 33.0108C247.794 32.2125 247.193 31.0086 247.193 29.2117V17.6039C247.193 16.0047 246.993 14.4029 246.392 13.4043C245.791 12.203 244.792 11.4021 243.791 10.8014C242.589 10.2008 241.389 10.0031 239.99 10.0031C234.784 10.0031 232.781 13.2041 231.582 15.0036H231.181L230.18 10.401H222.173V11.8026H226.179V29.4094C226.179 30.811 225.976 31.8095 225.776 32.4127C225.573 33.2085 224.98 33.8117 224.376 34.012C223.975 34.2122 223.174 34.4124 222.173 34.4124V36.0116H234.782V34.4124C233.58 34.2122 232.578 34.012 232.18 33.4113C231.78 32.8106 231.382 31.6093 231.382 29.8098V23.0074C231.382 20.2094 231.382 17.4037 232.383 15.8045C233.382 14.0024 235.383 13.0039 237.386 13.0039C239.389 13.0039 240.388 13.6046 240.991 14.8033C241.59 15.8045 241.787 18.8052 241.787 20.8049V29.2092C241.787 30.6082 241.993 31.6093 241.787 32.2125C241.59 33.0083 241.389 33.6115 240.786 34.0094C240.388 34.4124 239.584 34.4124 238.785 34.6101V36.2119H250.999V34.6101C249.594 34.012 248.595 33.6089 248.195 33.0108ZM190.95 8.40132C190.149 8.60154 189.748 9.40244 189.348 10.4036C189.147 11.4047 188.747 12.0028 188.146 12.2004C187.545 12.4032 186.947 12.4032 186.346 12.0028C184.946 10.8014 182.542 9.40244 178.138 9.40244C170.932 9.40244 167.93 14.4029 167.93 19.0029C167.93 24.4064 169.933 27.0093 174.533 28.0078C174.736 28.0078 174.736 28.4083 174.533 28.4083C170.732 29.2092 167.129 30.4105 167.129 34.012C167.129 36.2144 168.331 37.4132 170.134 38.2141C171.931 39.0124 174.533 39.4154 177.738 39.4154C180.537 39.4154 182.54 39.6157 183.742 39.6157C184.948 39.7711 186.108 40.1806 187.144 40.817C187.946 41.4177 188.346 42.4188 188.346 43.615C188.346 45.417 187.345 46.6183 185.544 47.8197C183.747 48.8208 181.538 49.2213 178.539 49.2213C176.138 49.2213 173.937 49.0185 172.134 47.8197C170.735 47.0188 170.532 45.4196 170.735 44.2182C170.937 43.0169 170.532 41.8181 169.132 41.4177C168.706 41.3238 168.261 41.3707 167.865 41.5512C167.468 41.7317 167.14 42.0362 166.931 42.4188C166.528 43.0143 166.328 43.8152 166.328 44.8163C166.328 47.8171 168.731 49.2161 170.532 49.8168C173.333 50.6151 175.139 50.8179 177.537 50.8179C180.943 50.8179 183.541 50.2172 185.544 49.4163C187.548 48.4152 188.749 47.2165 189.548 45.8149C190.347 44.4159 190.75 43.0143 190.75 41.6128C190.75 39.8133 190.347 38.2115 189.548 37.213C186.947 33.8117 183.341 34.2096 175.336 33.8117C171.533 33.8117 170.732 33.0108 170.732 31.8095C170.732 30.0101 172.134 29.4094 177.738 28.4083C183.341 27.6074 188.544 25.4075 188.544 18.8052C188.544 16.803 188.146 15.2038 187.542 14.005C188.747 14.2027 189.748 14.2027 190.747 14.005C191.952 13.6046 192.548 13.0039 192.951 12.4032C193.351 11.6023 193.549 10.8014 193.151 10.2008C193.351 8.60154 192.35 8.00087 190.95 8.40132ZM178.341 27.2095C174.941 27.2095 173.136 26.0056 173.136 19.2057C173.136 14.4055 174.738 10.8014 178.341 10.8014C182.545 10.8014 183.744 14.0024 183.744 19.0055C183.744 26.2084 181.543 27.2095 178.341 27.2095Z" fill="#3D3838"/>
</svg>
