<svg width="144" height="50" viewBox="0 0 144 50" fill="none" xmlns="http://www.w3.org/2000/svg">
<path d="M8.28481 35.7044C8.89334 37.3195 9.73583 38.7003 10.8124 39.8471C11.8891 40.994 13.1645 41.8717 14.6389 42.4802C16.1133 43.0888 17.7165 43.393 19.4484 43.393C21.1335 43.393 22.7132 43.077 24.1876 42.445C25.6621 41.8129 26.9492 40.9236 28.0492 39.7769C29.1491 38.63 30.0034 37.2609 30.6119 35.6693C31.2204 34.0778 31.5246 32.2991 31.5246 30.333V0H38.8967V49.1506H31.5949V44.5865C29.9566 46.3184 28.0257 47.6525 25.8024 48.5889C23.579 49.525 21.1803 49.9931 18.6059 49.9931C15.9846 49.9931 13.5389 49.5366 11.2687 48.6239C8.99867 47.7111 7.03264 46.4122 5.37111 44.727C3.70958 43.0417 2.39885 41.0175 1.43937 38.6534C0.479739 36.2895 0 33.6566 0 30.7542V0H7.3721V30.333C7.3721 32.2991 7.67628 34.0894 8.28481 35.7044ZM51.6042 0V17.9048C53.2424 16.2665 55.1382 14.9676 57.2913 14.0079C59.4444 13.0482 61.7848 12.5685 64.3123 12.5685C66.9336 12.5685 69.3907 13.0599 71.6844 14.0429C73.9779 15.0259 75.9671 16.36 77.6522 18.0453C79.3374 19.7305 80.6714 21.7198 81.6544 24.0135C82.6373 26.3073 83.1287 28.7414 83.1287 31.316C83.1287 33.8904 82.6373 36.3128 81.6544 38.583C80.6714 40.8534 79.3374 42.8312 77.6522 44.5161C75.9671 46.2014 73.9779 47.5355 71.6844 48.5185C69.3907 49.5015 66.9335 49.9929 64.3123 49.9929C61.7847 49.9929 59.4327 49.5132 57.2562 48.5535C55.0797 47.5939 53.1722 46.2949 51.534 44.6566V49.1504H44.513V0H51.6042ZM52.4116 36.1607C53.0434 37.6588 53.9212 38.9694 55.0446 40.0929C56.1679 41.2163 57.4785 42.1058 58.9763 42.7611C60.4742 43.4165 62.089 43.7441 63.8209 43.7441C65.5061 43.7441 67.0974 43.4165 68.5952 42.7611C70.0929 42.1058 71.3917 41.2165 72.4919 40.0929C73.5919 38.9696 74.4695 37.6588 75.1248 36.1607C75.78 34.6629 76.1077 33.048 76.1077 31.316C76.1077 29.584 75.78 27.9573 75.1248 26.4359C74.4695 24.9146 73.5919 23.5923 72.4919 22.4688C71.3919 21.3455 70.0931 20.4677 68.5952 19.8358C67.0972 19.204 65.5059 18.8878 63.8209 18.8878C62.1359 18.8878 60.5445 19.2038 59.0467 19.8358C57.5489 20.4679 56.2383 21.3455 55.1148 22.4688C53.9916 23.5923 53.1021 24.9146 52.4469 26.4359C51.7916 27.9573 51.4639 29.584 51.4639 31.316C51.4638 33.048 51.7798 34.6629 52.4116 36.1607ZM87.13 24.0839C88.066 21.837 89.3535 19.8593 90.9915 18.1507C92.6296 16.4422 94.5723 15.0964 96.8191 14.1134C99.0658 13.1304 101.5 12.639 104.121 12.639C106.695 12.639 109.083 13.1071 111.283 14.0432C113.482 14.9794 115.378 16.2784 116.97 17.9402C118.561 19.6019 119.801 21.568 120.691 23.8382C121.58 26.1086 122.025 28.5778 122.025 31.2461V33.5632H92.8874C93.1215 35.0143 93.5896 36.3601 94.2916 37.6004C94.9938 38.8408 95.8713 39.9175 96.9244 40.8303C97.9776 41.7432 99.1712 42.4571 100.505 42.9718C101.839 43.4867 103.255 43.7443 104.753 43.7443C109.013 43.7443 112.453 41.9888 115.074 38.478L120.199 42.2696C118.421 44.6569 116.221 46.5294 113.6 47.8868C110.978 49.2442 108.03 49.923 104.753 49.923C102.085 49.923 99.5927 49.4548 97.2757 48.5187C94.9587 47.5826 92.9461 46.2718 91.2376 44.5865C89.5292 42.9013 88.1835 40.9236 87.2006 38.6534C86.2176 36.3832 85.7261 33.9138 85.7261 31.2457C85.7258 28.7181 86.194 26.3308 87.13 24.0839ZM96.9946 21.3103C95.0053 22.9721 93.6831 25.1838 93.0278 27.9456H114.863C114.255 25.1838 112.956 22.9721 110.967 21.3103C108.977 19.6486 106.649 18.8177 103.981 18.8177C101.313 18.8177 98.984 19.6486 96.9946 21.3103ZM135.294 22.1177C133.796 23.756 133.047 25.9795 133.047 28.7882V49.1507H125.956V13.3409H132.977V17.7645C133.866 16.3134 135.025 15.1665 136.452 14.3239C137.88 13.4812 139.577 13.0599 141.543 13.0599H144V19.6601H141.051C138.711 19.6603 136.792 20.4794 135.294 22.1177Z" fill="#3D3838"/>
</svg>
